<svg xmlns="http://www.w3.org/2000/svg" width="800" height="400" viewBox="0 0 800 400" preserveAspectRatio="none">
            <!-- https://grabient.com/LQOgDAjBA0qTcCsjYXGMr2dAFkZiAJwDsR0aYATClSABxUDM0IEAbC4VVbq7riqsChekXbQwQA?style=angularSwatches&angle=315&steps=5 -->
            <defs>
              <clipPath id="squareClip">
                <rect x="0" y="0" width="800" height="400" />
              </clipPath>
              <filter id="antiGap">
                <feGaussianBlur in="SourceGraphic" stdDeviation="0.3" />
              </filter>
            </defs>
            <g clip-path="url(#squareClip)" filter="url(#antiGap)" shape-rendering="crispEdges">
          <path d="
              M 400.000,200.000
              L 83.772,-116.228
              A 447.214,447.214 0 0 1 603.031,-198.471
              Z
            " fill="#2c0059" fill-opacity="1.000" /><path d="
              M 400.000,200.000
              L 603.031,-198.471
              A 447.214,447.214 0 0 1 841.708,269.960
              Z
            " fill="#cc5e3f" fill-opacity="1.000" /><path d="
              M 400.000,200.000
              L 841.708,269.960
              A 447.214,447.214 0 0 1 469.960,641.708
              Z
            " fill="#d4e99c" fill-opacity="1.000" /><path d="
              M 400.000,200.000
              L 469.960,641.708
              A 447.214,447.214 0 0 1 1.529,403.031
              Z
            " fill="#379e39" fill-opacity="1.000" /><path d="
              M 400.000,200.000
              L 1.529,403.031
              A 447.214,447.214 0 0 1 83.772,-116.228
              Z
            " fill="#000061" fill-opacity="1.000" /></g>
        </svg>