<svg xmlns="http://www.w3.org/2000/svg" width="800" height="400" viewBox="0 0 800 400" preserveAspectRatio="none">
            <!-- https://grabient.com/HQBgLAHANKCsDMMQWsAjLA7DNYCcOYATDEWicEUSKWVPMJkYg5mi8AGx6Jw1qgQ-QTRBA?style=linearSwatches&angle=315 -->
            <defs>
              <clipPath id="bounds">
                <rect x="0" y="0" width="800" height="400" />
              </clipPath>
            </defs>
            <g clip-path="url(#bounds)"><path d="M 1016.228,183.772 L 383.772,816.228 L 337.618,770.074 L 970.074,137.618 Z" fill="#121216" fill-opacity="1.000" /><path d="M 970.074,137.618 L 337.618,770.074 L 291.465,723.920 L 923.920,91.465 Z" fill="#17161a" fill-opacity="1.000" /><path d="M 923.920,91.465 L 291.465,723.920 L 245.311,677.766 L 877.766,45.311 Z" fill="#1b1a1f" fill-opacity="1.000" /><path d="M 877.766,45.311 L 245.311,677.766 L 199.157,631.612 L 831.612,-0.843 Z" fill="#201f23" fill-opacity="1.000" /><path d="M 831.612,-0.843 L 199.157,631.612 L 153.003,585.459 L 785.459,-46.997 Z" fill="#242327" fill-opacity="1.000" /><path d="M 785.459,-46.997 L 153.003,585.459 L 106.849,539.305 L 739.305,-93.151 Z" fill="#28272b" fill-opacity="1.000" /><path d="M 739.305,-93.151 L 106.849,539.305 L 60.695,493.151 L 693.151,-139.305 Z" fill="#2c2b2f" fill-opacity="1.000" /><path d="M 693.151,-139.305 L 60.695,493.151 L 14.541,446.997 L 646.997,-185.459 Z" fill="#302f33" fill-opacity="1.000" /><path d="M 646.997,-185.459 L 14.541,446.997 L -31.612,400.843 L 600.843,-231.612 Z" fill="#333237" fill-opacity="1.000" /><path d="M 600.843,-231.612 L -31.612,400.843 L -77.766,354.689 L 554.689,-277.766 Z" fill="#37363a" fill-opacity="1.000" /><path d="M 554.689,-277.766 L -77.766,354.689 L -123.920,308.535 L 508.535,-323.920 Z" fill="#39383d" fill-opacity="1.000" /><path d="M 508.535,-323.920 L -123.920,308.535 L -170.074,262.382 L 462.382,-370.074 Z" fill="#3c3b40" fill-opacity="1.000" /><path d="M 462.382,-370.074 L -170.074,262.382 L -216.228,216.228 L 416.228,-416.228 Z" fill="#3e3d42" fill-opacity="1.000" /></g>
          </svg>