<svg xmlns="http://www.w3.org/2000/svg" width="800" height="400" viewBox="0 0 800 400" preserveAspectRatio="none">
            <!-- https://grabient.com/HQNgTAHANMAsEFYZjLKBaADMAzARmi2DAE4QZYTDtY8wNswQSY8B2cvXJh4BE+ui6ZMOIA?style=angularSwatches&angle=210 -->
            <defs>
              <clipPath id="squareClip">
                <rect x="0" y="0" width="800" height="400" />
              </clipPath>
              <filter id="antiGap">
                <feGaussianBlur in="SourceGraphic" stdDeviation="0.3" />
              </filter>
            </defs>
            <g clip-path="url(#squareClip)" filter="url(#antiGap)" shape-rendering="crispEdges">
          <path d="
              M 400.000,200.000
              L 176.393,587.299
              A 447.214,447.214 0 0 1 38.196,462.866
              Z
            " fill="#c5bbb8" fill-opacity="1.000" /><path d="
              M 400.000,200.000
              L 38.196,462.866
              A 447.214,447.214 0 0 1 -37.441,292.981
              Z
            " fill="#b8b5b8" fill-opacity="1.000" /><path d="
              M 400.000,200.000
              L -37.441,292.981
              A 447.214,447.214 0 0 1 -37.441,107.019
              Z
            " fill="#a9afb7" fill-opacity="1.000" /><path d="
              M 400.000,200.000
              L -37.441,107.019
              A 447.214,447.214 0 0 1 38.196,-62.866
              Z
            " fill="#9aa8b5" fill-opacity="1.000" /><path d="
              M 400.000,200.000
              L 38.196,-62.866
              A 447.214,447.214 0 0 1 176.393,-187.299
              Z
            " fill="#8ba1b3" fill-opacity="1.000" /><path d="
              M 400.000,200.000
              L 176.393,-187.299
              A 447.214,447.214 0 0 1 353.253,-244.764
              Z
            " fill="#7d98af" fill-opacity="1.000" /><path d="
              M 400.000,200.000
              L 353.253,-244.764
              A 447.214,447.214 0 0 1 538.197,-225.326
              Z
            " fill="#7090ab" fill-opacity="1.000" /><path d="
              M 400.000,200.000
              L 538.197,-225.326
              A 447.214,447.214 0 0 1 699.245,-132.345
              Z
            " fill="#6587a6" fill-opacity="1.000" /><path d="
              M 400.000,200.000
              L 699.245,-132.345
              A 447.214,447.214 0 0 1 808.550,18.102
              Z
            " fill="#5c7ea1" fill-opacity="1.000" /><path d="
              M 400.000,200.000
              L 808.550,18.102
              A 447.214,447.214 0 0 1 847.214,200.000
              Z
            " fill="#55759b" fill-opacity="1.000" /><path d="
              M 400.000,200.000
              L 847.214,200.000
              A 447.214,447.214 0 0 1 808.550,381.898
              Z
            " fill="#516c94" fill-opacity="1.000" /><path d="
              M 400.000,200.000
              L 808.550,381.898
              A 447.214,447.214 0 0 1 699.245,532.345
              Z
            " fill="#4f638d" fill-opacity="1.000" /><path d="
              M 400.000,200.000
              L 699.245,532.345
              A 447.214,447.214 0 0 1 538.197,625.326
              Z
            " fill="#505a85" fill-opacity="1.000" /><path d="
              M 400.000,200.000
              L 538.197,625.326
              A 447.214,447.214 0 0 1 353.253,644.764
              Z
            " fill="#54537d" fill-opacity="1.000" /><path d="
              M 400.000,200.000
              L 353.253,644.764
              A 447.214,447.214 0 0 1 176.393,587.299
              Z
            " fill="#5b4b74" fill-opacity="1.000" /></g>
        </svg>