<svg xmlns="http://www.w3.org/2000/svg" width="716" height="487.3999938964844" viewBox="0 0 716 487.3999938964844" preserveAspectRatio="none">
            <!-- https://grabient.com/HQBgrAzANKAsAcMT0cAjLAnDNYDsOsATDEUSKWicGWlBMHmtA3kS8AGyYRA?style=linearSwatches&angle=45 -->
            <defs>
              <clipPath id="bounds">
                <rect x="0" y="0" width="716" height="487.3999938964844" />
              </clipPath>
            </defs>
            <g clip-path="url(#bounds)"><path d="M 363.380,850.780 L -249.080,238.320 L -202.795,192.035 L 409.665,804.495 Z" fill="#05050a" fill-opacity="1.000" /><path d="M 409.665,804.495 L -202.795,192.035 L -156.511,145.751 L 455.949,758.211 Z" fill="#090a0e" fill-opacity="1.000" /><path d="M 455.949,758.211 L -156.511,145.751 L -110.226,99.466 L 502.234,711.926 Z" fill="#0d0e12" fill-opacity="1.000" /><path d="M 502.234,711.926 L -110.226,99.466 L -63.942,53.181 L 548.519,665.642 Z" fill="#121316" fill-opacity="1.000" /><path d="M 548.519,665.642 L -63.942,53.181 L -17.657,6.897 L 594.803,619.357 Z" fill="#16171a" fill-opacity="1.000" /><path d="M 594.803,619.357 L -17.657,6.897 L 28.628,-39.388 L 641.088,573.072 Z" fill="#1a1b1e" fill-opacity="1.000" /><path d="M 641.088,573.072 L 28.628,-39.388 L 74.912,-85.672 L 687.372,526.788 Z" fill="#1e1f22" fill-opacity="1.000" /><path d="M 687.372,526.788 L 74.912,-85.672 L 121.197,-131.957 L 733.657,480.503 Z" fill="#222326" fill-opacity="1.000" /><path d="M 733.657,480.503 L 121.197,-131.957 L 167.481,-178.242 L 779.942,434.219 Z" fill="#26272a" fill-opacity="1.000" /><path d="M 779.942,434.219 L 167.481,-178.242 L 213.766,-224.526 L 826.226,387.934 Z" fill="#292a2d" fill-opacity="1.000" /><path d="M 826.226,387.934 L 213.766,-224.526 L 260.051,-270.811 L 872.511,341.649 Z" fill="#2c2d30" fill-opacity="1.000" /><path d="M 872.511,341.649 L 260.051,-270.811 L 306.335,-317.095 L 918.795,295.365 Z" fill="#2e2f33" fill-opacity="1.000" /><path d="M 918.795,295.365 L 306.335,-317.095 L 352.620,-363.380 L 965.080,249.080 Z" fill="#303135" fill-opacity="1.000" /></g>
          </svg>