<svg xmlns="http://www.w3.org/2000/svg" width="800" height="400" viewBox="0 0 800 400" preserveAspectRatio="none">
            <!-- https://grabient.com/HQBhFYBpgRgTgEzTgdgCyRqAzB4AOBKYNfEaANhnOCprWwsgFosK5sWRhxxysYMJsBTZOI-OPAIYkBKAQUgA?style=linearSwatches&angle=135&steps=8 -->
            <defs>
              <clipPath id="bounds">
                <rect x="0" y="0" width="800" height="400" />
              </clipPath>
            </defs>
            <g clip-path="url(#bounds)"><path d="M -216.228,216.228 L 416.228,-416.228 L 491.228,-341.228 L -141.228,291.228 Z" fill="#ffffff" fill-opacity="1.000" /><path d="M -141.228,291.228 L 491.228,-341.228 L 566.228,-266.228 L -66.228,366.228 Z" fill="#ffffff" fill-opacity="1.000" /><path d="M -66.228,366.228 L 566.228,-266.228 L 641.228,-191.228 L 8.772,441.228 Z" fill="#ffffff" fill-opacity="1.000" /><path d="M 8.772,441.228 L 641.228,-191.228 L 716.228,-116.228 L 83.772,516.228 Z" fill="#ffffff" fill-opacity="1.000" /><path d="M 83.772,516.228 L 716.228,-116.228 L 791.228,-41.228 L 158.772,591.228 Z" fill="#ffd0ff" fill-opacity="1.000" /><path d="M 158.772,591.228 L 791.228,-41.228 L 866.228,33.772 L 233.772,666.228 Z" fill="#ffa4ff" fill-opacity="1.000" /><path d="M 233.772,666.228 L 866.228,33.772 L 941.228,108.772 L 308.772,741.228 Z" fill="#dd7dff" fill-opacity="1.000" /><path d="M 308.772,741.228 L 941.228,108.772 L 1016.228,183.772 L 383.772,816.228 Z" fill="#a35fff" fill-opacity="1.000" /></g>
          </svg>