<svg xmlns="http://www.w3.org/2000/svg" width="800" height="400" viewBox="0 0 800 400" preserveAspectRatio="none">
            <!-- https://grabient.com/HQRgTCA0wKwMwHZpwGw2gBgBxWHAnACzSFxYmHrAaH4kZiQzD4hKwpyRyxYJA?style=linearSwatches&angle=135 -->
            <defs>
              <clipPath id="bounds">
                <rect x="0" y="0" width="800" height="400" />
              </clipPath>
            </defs>
            <g clip-path="url(#bounds)"><path d="M -216.228,216.228 L 416.228,-416.228 L 501.942,-330.513 L -130.513,301.942 Z" fill="#312c00" fill-opacity="1.000" /><path d="M -130.513,301.942 L 501.942,-330.513 L 587.656,-244.799 L -44.799,387.656 Z" fill="#332e1e" fill-opacity="1.000" /><path d="M -44.799,387.656 L 587.656,-244.799 L 673.371,-159.085 L 40.915,473.371 Z" fill="#323149" fill-opacity="1.000" /><path d="M 40.915,473.371 L 673.371,-159.085 L 759.085,-73.371 L 126.629,559.085 Z" fill="#2c3377" fill-opacity="1.000" /><path d="M 126.629,559.085 L 759.085,-73.371 L 844.799,12.344 L 212.344,644.799 Z" fill="#2436a2" fill-opacity="1.000" /><path d="M 212.344,644.799 L 844.799,12.344 L 930.513,98.058 L 298.058,730.513 Z" fill="#1a39c0" fill-opacity="1.000" /><path d="M 298.058,730.513 L 930.513,98.058 L 1016.228,183.772 L 383.772,816.228 Z" fill="#113ccc" fill-opacity="1.000" /></g>
          </svg>