<svg xmlns="http://www.w3.org/2000/svg" width="800" height="400" viewBox="0 0 800 400" preserveAspectRatio="none">
            <!-- https://grabient.com/HQTgzAbANMDsCMBWGAOALCKBaADMeE0wYOATNnvGtLsCvGBcSJrWovDCDpvMGTlRpOtMLCIpYjPhGFQ+pWCiA?style=linearSwatches&angle=45&steps=8 -->
            <defs>
              <clipPath id="bounds">
                <rect x="0" y="0" width="800" height="400" />
              </clipPath>
            </defs>
            <g clip-path="url(#bounds)"><path d="M 416.228,816.228 L -216.228,183.772 L -141.228,108.772 L 491.228,741.228 Z" fill="#9e1a78" fill-opacity="1.000" /><path d="M 491.228,741.228 L -141.228,108.772 L -66.228,33.772 L 566.228,666.228 Z" fill="#753564" fill-opacity="1.000" /><path d="M 566.228,666.228 L -66.228,33.772 L 8.772,-41.228 L 641.228,591.228 Z" fill="#6d5b59" fill-opacity="1.000" /><path d="M 641.228,591.228 L 8.772,-41.228 L 83.772,-116.228 L 716.228,516.228 Z" fill="#907f5b" fill-opacity="1.000" /><path d="M 716.228,516.228 L 83.772,-116.228 L 158.772,-191.228 L 791.228,441.228 Z" fill="#b2966a" fill-opacity="1.000" /><path d="M 791.228,441.228 L 158.772,-191.228 L 233.772,-266.228 L 866.228,366.228 Z" fill="#a7977f" fill-opacity="1.000" /><path d="M 866.228,366.228 L 233.772,-266.228 L 308.772,-341.228 L 941.228,291.228 Z" fill="#7d8391" fill-opacity="1.000" /><path d="M 941.228,291.228 L 308.772,-341.228 L 383.772,-416.228 L 1016.228,216.228 Z" fill="#6a6099" fill-opacity="1.000" /></g>
          </svg>